<?xml version="1.0" encoding="UTF-8" standalone="no"?>
<!-- Created with Inkscape (http://www.inkscape.org/) -->

<svg
   width="32.776142mm"
   height="14.782903mm"
   viewBox="0 0 32.776142 14.782903"
   version="1.1"
   id="svg1"
   inkscape:version="1.3.2 (091e20ef0f, 2023-11-25, custom)"
   sodipodi:docname="back-version-logo.svg"
   xmlns:inkscape="http://www.inkscape.org/namespaces/inkscape"
   xmlns:sodipodi="http://sodipodi.sourceforge.net/DTD/sodipodi-0.dtd"
   xmlns="http://www.w3.org/2000/svg"
   xmlns:svg="http://www.w3.org/2000/svg">
  <sodipodi:namedview
     id="namedview1"
     pagecolor="#ffffff"
     bordercolor="#000000"
     borderopacity="0.25"
     inkscape:showpageshadow="2"
     inkscape:pageopacity="0.0"
     inkscape:pagecheckerboard="0"
     inkscape:deskcolor="#d1d1d1"
     inkscape:document-units="mm"
     inkscape:zoom="0.49136905"
     inkscape:cx="236.07511"
     inkscape:cy="182.14416"
     inkscape:window-width="1862"
     inkscape:window-height="1117"
     inkscape:window-x="28"
     inkscape:window-y="28"
     inkscape:window-maximized="1"
     inkscape:current-layer="layer1" />
  <defs
     id="defs1" />
  <g
     inkscape:label="Livello 1"
     inkscape:groupmode="layer"
     id="layer1"
     transform="translate(-42.333333,-100.27708)">
    <g
       id="g2"
       inkscape:export-filename="../../../../../../../Progetti/samuloop/domains/samuloop.site/public_html/system/models/config/icons/back-version-logo.png"
       inkscape:export-xdpi="96"
       inkscape:export-ydpi="96"
       transform="matrix(0.26458333,0,0,0.26458333,-81.587397,117.51019)">
      <path
         inkscape:connector-curvature="0"
         style="fill:#040832;fill-opacity:1;stroke:#ff0000;stroke-width:5.5;stroke-miterlimit:4;stroke-dasharray:none;stroke-opacity:0"
         d="m 493.8527,-50.842043 a 11.370439,11.370439 0 0 1 -11.37044,11.370438 11.370439,11.370439 0 0 1 -11.37044,-11.370438 11.370439,11.370439 0 0 1 11.37044,-11.370439 11.370439,11.370439 0 0 1 11.37044,11.370439 z"
         id="path10706-5" />
      <path
         inkscape:connector-curvature="0"
         d="m 523.52026,-44.37301 q 0,1.44 -0.48,2.8 -0.48,1.36 -1.56,2.68 -1.04,1.32 -3.16,2.12 -2.12,0.8 -5.04,0.8 h -13.12 v -29.16 h 13 q 2.72,0 4.68,0.8 2,0.8 2.96,2.08 1,1.24 1.44,2.44 0.44,1.2 0.44,2.36 0,1.88 -0.92,3.28 -0.92,1.36 -3.08,2.72 4.84,2.84 4.84,7.08 z m -17.36,-15.76 v 6.6 h 6.52 q 4.24,0 4.24,-3.28 0,-3.32 -4.24,-3.32 z m 0,11.6 v 7.56 h 7.16 q 4.44,0 4.44,-3.76 0,-3.8 -4.44,-3.8 z"
         style="font-style:normal;font-variant:normal;font-weight:600;font-stretch:normal;font-size:40px;line-height:1.25;font-family:FreeSans;-inkscape-font-specification:'FreeSans Semi-Bold';letter-spacing:0px;word-spacing:0px;fill:#040832;fill-opacity:1;stroke:none;stroke-width:1px;stroke-linecap:butt;stroke-linejoin:miter;stroke-opacity:1"
         id="path836-5" />
      <path
         inkscape:connector-curvature="0"
         d="m 533.2802,-35.05301 q -2.96,0 -4.76,-1.76 -1.8,-1.8 -1.8,-4.72 0,-5.72 6.36,-6.8 l 2.24,-0.4 q 0.08,0 0.8,-0.08 0.72,-0.12 0.92,-0.16 0.2,-0.08 0.76,-0.2 0.6,-0.12 0.84,-0.28 0.24,-0.16 0.56,-0.4 0.36,-0.28 0.48,-0.6 0.12,-0.36 0.12,-0.8 0,-2.16 -3.24,-2.16 -2.08,0 -2.92,0.64 -0.84,0.64 -1.04,2.32 h -5.4 q 0.52,-7.48 9.24,-7.48 8.84,0 8.84,6.64 v 12 q 0,1.48 1.28,2.64 v 0.68 h -6.08 q -0.64,-0.8 -0.64,-2.16 -2.96,3.08 -6.56,3.08 z m 6.52,-9.6 v -1.52 q -0.76,0.36 -2.36,0.68 l -1.92,0.36 q -1.76,0.36 -2.48,1.04 -0.72,0.68 -0.72,1.92 0,1.2 0.8,1.92 0.84,0.68 2.24,0.68 2.12,0 3.28,-1.32 1.16,-1.32 1.16,-3.76 z"
         style="font-style:normal;font-variant:normal;font-weight:600;font-stretch:normal;font-size:40px;line-height:1.25;font-family:FreeSans;-inkscape-font-specification:'FreeSans Semi-Bold';letter-spacing:0px;word-spacing:0px;fill:#040832;fill-opacity:1;stroke:none;stroke-width:1px;stroke-linecap:butt;stroke-linejoin:miter;stroke-opacity:1"
         id="path838-6" />
      <path
         inkscape:connector-curvature="0"
         d="m 559.5202,-53.41301 q -4.56,0 -4.56,7.08 0,3.16 1.2,4.96 1.24,1.8 3.36,1.8 1.64,0 2.56,-0.88 0.92,-0.92 1.44,-3 h 5.36 q -0.4,3.88 -2.96,6.16 -2.52,2.24 -6.44,2.24 -4.8,0 -7.48,-2.96 -2.64,-2.96 -2.64,-8.32 0,-5.52 2.68,-8.56 2.68,-3.04 7.52,-3.04 4.04,0 6.52,2.24 2.52,2.24 2.8,6.2 h -5.36 q -0.48,-2.12 -1.4,-3 -0.88,-0.92 -2.6,-0.92 z"
         style="font-style:normal;font-variant:normal;font-weight:600;font-stretch:normal;font-size:40px;line-height:1.25;font-family:FreeSans;-inkscape-font-specification:'FreeSans Semi-Bold';letter-spacing:0px;word-spacing:0px;fill:#040832;fill-opacity:1;stroke:none;stroke-width:1px;stroke-linecap:butt;stroke-linejoin:miter;stroke-opacity:1"
         id="path840-2" />
      <path
         inkscape:connector-curvature="0"
         d="m 578.28015,-49.17301 7.08,-8.4 h 6.36 l -7.36,8.16 7.88,13.44 h -6.56 l -5.16,-9.52 -2.24,2.44 v 7.08 h -5.6 v -29.16 h 5.6 z"
         style="font-style:normal;font-variant:normal;font-weight:600;font-stretch:normal;font-size:40px;line-height:1.25;font-family:FreeSans;-inkscape-font-specification:'FreeSans Semi-Bold';letter-spacing:0px;word-spacing:0px;fill:#040832;fill-opacity:1;stroke:none;stroke-width:1px;stroke-linecap:butt;stroke-linejoin:miter;stroke-opacity:1"
         id="path842-9" />
      <path
         inkscape:connector-curvature="0"
         d="m 485.52694,-9.6180502 h -3.59058 L 471.50915,-34.799002 h 3.64499 l 7.07237,17.728534 1.52328,4.450005 1.52327,-4.450005 7.03611,-17.728534 h 3.64499 z"
         style="font-style:normal;font-weight:normal;font-size:36.8689px;line-height:1.25;font-family:sans-serif;letter-spacing:0px;word-spacing:0px;fill:#040832;fill-opacity:1;stroke:none;stroke-width:1.08447px;stroke-linecap:butt;stroke-linejoin:miter;stroke-opacity:1"
         id="path821-1" />
      <path
         inkscape:connector-curvature="0"
         d="m 499.07325,-18.607417 q 0,3.324099 1.39634,5.129122 1.39634,1.805022 4.08021,1.805022 2.12171,0 3.39111,-0.839961 1.28754,-0.839961 1.74089,-2.126709 l 2.86522,0.804218 q -1.75902,4.5751057 -7.99722,4.5751057 -4.35222,0 -6.63714,-2.5556257 -2.26679,-2.555626 -2.26679,-7.59539 0,-4.789564 2.26679,-7.34519 2.28492,-2.555625 6.5102,-2.555625 8.65005,0 8.65005,10.276117 v 0.428916 z m 10.62669,-2.466268 q -0.27202,-3.056028 -1.57768,-4.450005 -1.30567,-1.411849 -3.7538,-1.411849 -2.37559,0 -3.77193,1.572692 -1.3782,1.554821 -1.48701,4.289162 z"
         style="font-style:normal;font-weight:normal;font-size:36.8689px;line-height:1.25;font-family:sans-serif;letter-spacing:0px;word-spacing:0px;fill:#040832;fill-opacity:1;stroke:none;stroke-width:1.08447px;stroke-linecap:butt;stroke-linejoin:miter;stroke-opacity:1"
         id="path823-2" />
      <path
         inkscape:connector-curvature="0"
         d="M 517.2982,-9.6180502 V -24.4514 q 0,-2.037352 -0.1088,-4.50362 h 3.08283 q 0.14507,3.288357 0.14507,3.949604 h 0.0725 q 0.77977,-2.48414 1.79529,-3.395587 1.01552,-0.911447 2.86522,-0.911447 0.65283,0 1.3238,0.178715 v 2.948798 q -0.65283,-0.178714 -1.74089,-0.178714 -2.03104,0 -3.10096,1.733536 -1.06993,1.715665 -1.06993,4.932535 v 10.0795298 z"
         style="font-style:normal;font-weight:normal;font-size:36.8689px;line-height:1.25;font-family:sans-serif;letter-spacing:0px;word-spacing:0px;fill:#040832;fill-opacity:1;stroke:none;stroke-width:1.08447px;stroke-linecap:butt;stroke-linejoin:miter;stroke-opacity:1"
         id="path825-7" />
      <path
         inkscape:connector-curvature="0"
         d="m 544.31828,-14.96163 q 0,2.73434 -2.10358,4.217675 -2.08543,1.4833357 -5.85737,1.4833357 -3.66312,0 -5.65789,-1.1795197 -1.97664,-1.197391 -2.57507,-3.717274 l 2.88335,-0.554016 q 0.41709,1.554821 1.72275,2.287553 1.30567,0.71486 3.62686,0.71486 2.48439,0 3.62686,-0.750603 1.16059,-0.750604 1.16059,-2.25181 0,-1.143777 -0.79791,-1.858636 -0.7979,-0.714861 -2.57507,-1.179521 l -2.33932,-0.607631 q -2.81081,-0.714859 -4.00767,-1.393977 -1.17873,-0.696989 -1.8497,-1.679922 -0.67097,-0.982932 -0.67097,-2.412653 0,-2.644983 1.9041,-4.021089 1.92223,-1.393978 5.58536,-1.393978 3.24604,0 5.15013,1.125905 1.92224,1.125905 2.43,3.610045 l -2.93775,0.35743 q -0.27202,-1.286749 -1.46888,-1.965865 -1.17873,-0.69699 -3.1735,-0.69699 -2.21239,0 -3.26417,0.661247 -1.05179,0.661245 -1.05179,2.001608 0,0.822089 0.43522,1.358234 0.43523,0.536146 1.28753,0.911448 0.85232,0.375301 3.59059,1.036546 2.59321,0.643375 3.73567,1.197391 1.14246,0.536146 1.79529,1.197392 0.67097,0.661245 1.03365,1.536949 0.36269,0.857832 0.36269,1.965866 z"
         style="font-style:normal;font-weight:normal;font-size:36.8689px;line-height:1.25;font-family:sans-serif;letter-spacing:0px;word-spacing:0px;fill:#040832;fill-opacity:1;stroke:none;stroke-width:1.08447px;stroke-linecap:butt;stroke-linejoin:miter;stroke-opacity:1"
         id="path827-0" />
      <path
         inkscape:connector-curvature="0"
         d="M 548.19902,-9.6180502 V -28.270608 h 2.56565 v 18.6525578 z"
         style="font-style:normal;font-weight:normal;font-size:27.3103px;line-height:0%;font-family:sans-serif;letter-spacing:0px;word-spacing:0px;fill:#040832;fill-opacity:1;stroke:none;stroke-width:1.08447px;stroke-linecap:butt;stroke-linejoin:miter;stroke-opacity:1"
         id="path829-9" />
      <path
         inkscape:connector-curvature="0"
         d="m 572.39887,-19.304407 q 0,5.075509 -2.26678,7.559648 -2.26679,2.4841397 -6.58274,2.4841397 -4.29783,0 -6.49208,-2.5734977 -2.19425,-2.591368 -2.19425,-7.47029 0,-10.008043 8.79513,-10.008043 4.4973,0 6.61901,2.448397 2.12171,2.430525 2.12171,7.559646 z m -3.42737,0 q 0,-4.003217 -1.215,-5.808239 -1.19686,-1.822893 -4.04395,-1.822893 -2.86521,0 -4.15275,1.858636 -1.26939,1.840766 -1.26939,5.772496 0,3.824503 1.25126,5.754625 1.2694,1.912252 3.9714,1.912252 2.93776,0 4.18903,-1.858636 1.2694,-1.858637 1.2694,-5.808241 z"
         style="font-style:normal;font-weight:normal;font-size:36.8689px;line-height:1.25;font-family:sans-serif;letter-spacing:0px;word-spacing:0px;fill:#040832;fill-opacity:1;stroke:none;stroke-width:1.08447px;stroke-linecap:butt;stroke-linejoin:miter;stroke-opacity:1"
         id="path831-3" />
      <path
         inkscape:connector-curvature="0"
         d="M 588.91921,-9.6180502 V -21.877903 q 0,-1.912251 -0.38082,-2.966671 -0.38083,-1.054418 -1.21501,-1.519077 -0.83417,-0.46466 -2.44812,-0.46466 -2.35746,0 -3.71753,1.590564 -1.36007,1.590565 -1.36007,4.414262 v 11.2054348 h -3.26417 V -24.826701 q 0,-3.377715 -0.10881,-4.128319 h 3.08283 q 0.0181,0.08936 0.0363,0.482531 0.0181,0.393174 0.0363,0.911447 0.0363,0.500402 0.0725,1.912251 h 0.0544 q 1.12433,-2.001609 2.59321,-2.823698 1.487,-0.839961 3.68126,-0.839961 3.22789,0 4.7149,1.590564 1.50515,1.572693 1.50515,5.21848 v 12.8853558 z"
         style="font-style:normal;font-weight:normal;font-size:36.8689px;line-height:1.25;font-family:sans-serif;letter-spacing:0px;word-spacing:0px;fill:#040832;fill-opacity:1;stroke:none;stroke-width:1.08447px;stroke-linecap:butt;stroke-linejoin:miter;stroke-opacity:1"
         id="path833-6" />
      <path
         style="fill:#ffcc00;fill-opacity:1;fill-rule:evenodd;stroke:none;stroke-width:1px;stroke-linecap:butt;stroke-linejoin:miter;stroke-opacity:1"
         d="m 486.8555,-58.014169 v 13.819457 l -12.32459,-7.115606 z"
         id="path10716-0"
         inkscape:connector-curvature="0"
         inkscape:export-filename="/home/lele/Immagini/bluebv.png"
         inkscape:export-xdpi="533.33331"
         inkscape:export-ydpi="533.33331" />
    </g>
  </g>
</svg>
