<?xml version="1.0" encoding="UTF-8" standalone="no"?>
<!-- Created with Inkscape (http://www.inkscape.org/) -->

<svg
   width="32.776142mm"
   height="14.782901mm"
   viewBox="0 0 32.776142 14.782901"
   version="1.1"
   id="svg920"
   inkscape:version="1.3 (0e150ed6c4, 2023-07-21)"
   sodipodi:docname="back-version_logo_2022.svg"
   xmlns:inkscape="http://www.inkscape.org/namespaces/inkscape"
   xmlns:sodipodi="http://sodipodi.sourceforge.net/DTD/sodipodi-0.dtd"
   xmlns="http://www.w3.org/2000/svg"
   xmlns:svg="http://www.w3.org/2000/svg"
   xmlns:rdf="http://www.w3.org/1999/02/22-rdf-syntax-ns#"
   xmlns:cc="http://creativecommons.org/ns#"
   xmlns:dc="http://purl.org/dc/elements/1.1/">
  <defs
     id="defs914" />
  <sodipodi:namedview
     id="base"
     pagecolor="#ffffff"
     bordercolor="#666666"
     borderopacity="1.0"
     inkscape:pageopacity="0.0"
     inkscape:pageshadow="2"
     inkscape:zoom="2.8284271"
     inkscape:cx="87.858018"
     inkscape:cy="3.0052038"
     inkscape:document-units="mm"
     inkscape:current-layer="layer1"
     showgrid="false"
     fit-margin-top="0"
     fit-margin-left="0"
     fit-margin-right="0"
     fit-margin-bottom="0"
     inkscape:window-width="1862"
     inkscape:window-height="1117"
     inkscape:window-x="1948"
     inkscape:window-y="28"
     inkscape:window-maximized="1"
     inkscape:showpageshadow="2"
     inkscape:pagecheckerboard="0"
     inkscape:deskcolor="#d1d1d1" />
  <metadata
     id="metadata917">
    <rdf:RDF>
      <cc:Work
         rdf:about="">
        <dc:format>image/svg+xml</dc:format>
        <dc:type
           rdf:resource="http://purl.org/dc/dcmitype/StillImage" />
        <dc:title />
      </cc:Work>
    </rdf:RDF>
  </metadata>
  <g
     inkscape:label="Livello 1"
     inkscape:groupmode="layer"
     id="layer1"
     transform="translate(535.88432,158.40484)">
    <g
       id="g1"
       inkscape:export-filename="../../../../Progetti/www.spamu.site/domains/samuloop.site/public_html/data/images/bv-logo-light.svg"
       inkscape:export-xdpi="247.98524"
       inkscape:export-ydpi="247.98524">
      <path
         inkscape:connector-curvature="0"
         style="fill:#bde7ff;fill-opacity:1;stroke:#ff0000;stroke-width:1.45521;stroke-miterlimit:4;stroke-dasharray:none;stroke-opacity:0"
         d="m -529.13986,-154.62369 a 3.0084286,3.0084286 0 0 1 -3.00843,3.00843 3.0084286,3.0084286 0 0 1 -3.00843,-3.00843 3.0084286,3.0084286 0 0 1 3.00843,-3.00843 3.0084286,3.0084286 0 0 1 3.00843,3.00843 z"
         id="path10706" />
      <path
         inkscape:connector-curvature="0"
         d="m -521.29032,-152.91209 q 0,0.381 -0.127,0.74083 -0.127,0.35983 -0.41275,0.70908 -0.27517,0.34925 -0.83608,0.56092 -0.56092,0.21167 -1.3335,0.21167 h -3.47134 v -7.71525 h 3.43959 q 0.71966,0 1.23825,0.21166 0.52916,0.21167 0.78316,0.55034 0.26459,0.32808 0.381,0.64558 0.11642,0.3175 0.11642,0.62442 0,0.49741 -0.24342,0.86783 -0.24341,0.35983 -0.81491,0.71967 1.28058,0.75141 1.28058,1.87325 z m -4.59317,-4.16984 v 1.74625 h 1.72509 q 1.12183,0 1.12183,-0.86783 0,-0.87842 -1.12183,-0.87842 z m 0,3.06917 v 2.00025 h 1.89442 q 1.17475,0 1.17475,-0.99483 0,-1.00542 -1.17475,-1.00542 z"
         style="font-style:normal;font-variant:normal;font-weight:600;font-stretch:normal;font-size:40px;line-height:1.25;font-family:FreeSans;-inkscape-font-specification:'FreeSans Semi-Bold';letter-spacing:0px;word-spacing:0px;fill:#bde7ff;fill-opacity:1;stroke:none;stroke-width:0.264583px;stroke-linecap:butt;stroke-linejoin:miter;stroke-opacity:1"
         id="path836" />
      <path
         inkscape:connector-curvature="0"
         d="m -518.708,-150.44618 q -0.78317,0 -1.25942,-0.46566 -0.47625,-0.47625 -0.47625,-1.24884 0,-1.51341 1.68275,-1.79916 l 0.59267,-0.10584 q 0.0212,0 0.21166,-0.0212 0.1905,-0.0318 0.24342,-0.0423 0.0529,-0.0212 0.20108,-0.0529 0.15875,-0.0318 0.22225,-0.0741 0.0635,-0.0423 0.14817,-0.10583 0.0952,-0.0741 0.127,-0.15875 0.0317,-0.0952 0.0317,-0.21167 0,-0.5715 -0.85725,-0.5715 -0.55033,0 -0.77258,0.16934 -0.22225,0.16933 -0.27517,0.61383 h -1.42875 q 0.13759,-1.97908 2.44475,-1.97908 2.33892,0 2.33892,1.75683 v 3.175 q 0,0.39158 0.33866,0.6985 v 0.17992 h -1.60866 q -0.16934,-0.21167 -0.16934,-0.5715 -0.78316,0.81491 -1.73566,0.81491 z m 1.72508,-2.54 v -0.40216 q -0.20108,0.0952 -0.62442,0.17991 l -0.508,0.0952 q -0.46566,0.0952 -0.65616,0.27517 -0.1905,0.17992 -0.1905,0.508 0,0.3175 0.21166,0.508 0.22225,0.17992 0.59267,0.17992 0.56092,0 0.86783,-0.34925 0.30692,-0.34925 0.30692,-0.99484 z"
         style="font-style:normal;font-variant:normal;font-weight:600;font-stretch:normal;font-size:40px;line-height:1.25;font-family:FreeSans;-inkscape-font-specification:'FreeSans Semi-Bold';letter-spacing:0px;word-spacing:0px;fill:#bde7ff;fill-opacity:1;stroke:none;stroke-width:0.264583px;stroke-linecap:butt;stroke-linejoin:miter;stroke-opacity:1"
         id="path838" />
      <path
         inkscape:connector-curvature="0"
         d="m -511.76534,-155.30393 q -1.2065,0 -1.2065,1.87325 0,0.83609 0.3175,1.31234 0.32809,0.47625 0.889,0.47625 0.43392,0 0.67734,-0.23284 0.24341,-0.24341 0.381,-0.79375 h 1.41816 q -0.10583,1.02659 -0.78316,1.62984 -0.66675,0.59266 -1.70392,0.59266 -1.27,0 -1.97908,-0.78316 -0.6985,-0.78317 -0.6985,-2.20134 0,-1.4605 0.70908,-2.26483 0.70908,-0.80433 1.98967,-0.80433 1.06891,0 1.72508,0.59266 0.66675,0.59267 0.74083,1.64042 h -1.41816 q -0.127,-0.56092 -0.37042,-0.79375 -0.23283,-0.24342 -0.68792,-0.24342 z"
         style="font-style:normal;font-variant:normal;font-weight:600;font-stretch:normal;font-size:40px;line-height:1.25;font-family:FreeSans;-inkscape-font-specification:'FreeSans Semi-Bold';letter-spacing:0px;word-spacing:0px;fill:#bde7ff;fill-opacity:1;stroke:none;stroke-width:0.264583px;stroke-linecap:butt;stroke-linejoin:miter;stroke-opacity:1"
         id="path840" />
      <path
         inkscape:connector-curvature="0"
         d="m -506.80177,-154.18209 1.87325,-2.2225 h 1.68275 l -1.94733,2.159 2.08492,3.556 h -1.73567 l -1.36525,-2.51884 -0.59267,0.64559 v 1.87325 h -1.48166 v -7.71525 h 1.48166 z"
         style="font-style:normal;font-variant:normal;font-weight:600;font-stretch:normal;font-size:40px;line-height:1.25;font-family:FreeSans;-inkscape-font-specification:'FreeSans Semi-Bold';letter-spacing:0px;word-spacing:0px;fill:#bde7ff;fill-opacity:1;stroke:none;stroke-width:0.264583px;stroke-linecap:butt;stroke-linejoin:miter;stroke-opacity:1"
         id="path842" />
      <path
         inkscape:connector-curvature="0"
         d="m -531.34272,-143.71651 h -0.95001 l -2.75886,-6.66246 h 0.9644 l 1.87123,4.69067 0.40304,1.1774 0.40303,-1.1774 1.86164,-4.69067 h 0.9644 z"
         style="font-style:normal;font-weight:normal;font-size:36.8689px;line-height:1.25;font-family:sans-serif;letter-spacing:0px;word-spacing:0px;fill:#bde7ff;fill-opacity:1;stroke:none;stroke-width:0.286933px;stroke-linecap:butt;stroke-linejoin:miter;stroke-opacity:1"
         id="path821" />
      <path
         inkscape:connector-curvature="0"
         d="m -527.75859,-146.09495 q 0,0.8795 0.36945,1.35708 0.36945,0.47758 1.07955,0.47758 0.56137,0 0.89724,-0.22224 0.34066,-0.22224 0.46061,-0.56269 l 0.75808,0.21278 q -0.4654,1.2105 -2.11593,1.2105 -1.15152,0 -1.75607,-0.67618 -0.59976,-0.67617 -0.59976,-2.00961 0,-1.26724 0.59976,-1.94341 0.60455,-0.67618 1.72249,-0.67618 2.28866,0 2.28866,2.71889 v 0.11348 z m 2.81164,-0.65253 q -0.072,-0.80857 -0.41742,-1.1774 -0.34546,-0.37355 -0.9932,-0.37355 -0.62854,0 -0.99799,0.41611 -0.36465,0.41138 -0.39343,1.13484 z"
         style="font-style:normal;font-weight:normal;font-size:36.8689px;line-height:1.25;font-family:sans-serif;letter-spacing:0px;word-spacing:0px;fill:#bde7ff;fill-opacity:1;stroke:none;stroke-width:0.286933px;stroke-linecap:butt;stroke-linejoin:miter;stroke-opacity:1"
         id="path823" />
      <path
         inkscape:connector-curvature="0"
         d="m -522.93657,-143.71651 v -3.92466 q 0,-0.53905 -0.0288,-1.19158 h 0.81567 q 0.0384,0.87004 0.0384,1.045 h 0.0192 q 0.20632,-0.65726 0.47501,-0.89842 0.26869,-0.24115 0.75808,-0.24115 0.17273,0 0.35026,0.0473 v 0.78021 q -0.17273,-0.0473 -0.46061,-0.0473 -0.53738,0 -0.82046,0.45867 -0.28309,0.45393 -0.28309,1.30506 v 2.66688 z"
         style="font-style:normal;font-weight:normal;font-size:36.8689px;line-height:1.25;font-family:sans-serif;letter-spacing:0px;word-spacing:0px;fill:#bde7ff;fill-opacity:1;stroke:none;stroke-width:0.286933px;stroke-linecap:butt;stroke-linejoin:miter;stroke-opacity:1"
         id="path825" />
      <path
         inkscape:connector-curvature="0"
         d="m -515.78751,-145.13033 q 0,0.72346 -0.55657,1.11592 -0.55177,0.39247 -1.54977,0.39247 -0.96919,0 -1.49698,-0.31208 -0.52298,-0.31681 -0.68132,-0.98353 l 0.76289,-0.14658 q 0.11035,0.41138 0.45581,0.60524 0.34546,0.18914 0.9596,0.18914 0.65733,0 0.95961,-0.19859 0.30708,-0.1986 0.30708,-0.59579 0,-0.30263 -0.21112,-0.49177 -0.21111,-0.18914 -0.68132,-0.31208 l -0.61894,-0.16077 q -0.7437,-0.18914 -1.06037,-0.36882 -0.31187,-0.18441 -0.4894,-0.44448 -0.17752,-0.26007 -0.17752,-0.63835 0,-0.69982 0.50379,-1.06391 0.50859,-0.36883 1.47779,-0.36883 0.85885,0 1.36264,0.2979 0.50859,0.2979 0.64294,0.95516 l -0.77728,0.0946 q -0.072,-0.34045 -0.38864,-0.52014 -0.31188,-0.18441 -0.83966,-0.18441 -0.58536,0 -0.86364,0.17496 -0.27829,0.17495 -0.27829,0.52959 0,0.21751 0.11515,0.35936 0.11516,0.14186 0.34066,0.24116 0.22551,0.0993 0.95001,0.27425 0.68612,0.17023 0.9884,0.31681 0.30227,0.14186 0.475,0.31681 0.17753,0.17496 0.27349,0.40665 0.096,0.22697 0.096,0.52014 z"
         style="font-style:normal;font-weight:normal;font-size:36.8689px;line-height:1.25;font-family:sans-serif;letter-spacing:0px;word-spacing:0px;fill:#bde7ff;fill-opacity:1;stroke:none;stroke-width:0.286933px;stroke-linecap:butt;stroke-linejoin:miter;stroke-opacity:1"
         id="path827" />
      <path
         inkscape:connector-curvature="0"
         d="m -514.76073,-143.71651 v -4.93516 h 0.67883 v 4.93516 z"
         style="font-style:normal;font-weight:normal;font-size:27.3103px;line-height:0%;font-family:sans-serif;letter-spacing:0px;word-spacing:0px;fill:#bde7ff;fill-opacity:1;stroke:none;stroke-width:0.286933px;stroke-linecap:butt;stroke-linejoin:miter;stroke-opacity:1"
         id="path829" />
      <path
         inkscape:connector-curvature="0"
         d="m -508.35785,-146.27936 q 0,1.3429 -0.59976,2.00016 -0.59975,0.65726 -1.74168,0.65726 -1.13713,0 -1.7177,-0.6809 -0.58056,-0.68564 -0.58056,-1.97652 0,-2.64796 2.32705,-2.64796 1.18991,0 1.75128,0.6478 0.56137,0.64308 0.56137,2.00016 z m -0.90683,0 q 0,-1.05918 -0.32147,-1.53676 -0.31667,-0.48231 -1.06996,-0.48231 -0.75809,0 -1.09875,0.49176 -0.33586,0.48704 -0.33586,1.52731 0,1.0119 0.33106,1.52258 0.33587,0.50595 1.05077,0.50595 0.77728,0 1.10835,-0.49177 0.33586,-0.49176 0.33586,-1.53676 z"
         style="font-style:normal;font-weight:normal;font-size:36.8689px;line-height:1.25;font-family:sans-serif;letter-spacing:0px;word-spacing:0px;fill:#bde7ff;fill-opacity:1;stroke:none;stroke-width:0.286933px;stroke-linecap:butt;stroke-linejoin:miter;stroke-opacity:1"
         id="path831" />
      <path
         inkscape:connector-curvature="0"
         d="m -503.98685,-143.71651 v -3.24375 q 0,-0.50595 -0.10076,-0.78493 -0.10076,-0.27899 -0.32147,-0.40193 -0.22071,-0.12294 -0.64773,-0.12294 -0.62374,0 -0.9836,0.42084 -0.35985,0.42083 -0.35985,1.16794 v 2.96477 h -0.86364 v -4.02396 q 0,-0.89368 -0.0288,-1.09228 h 0.81566 q 0.005,0.0236 0.01,0.12767 0.005,0.10403 0.01,0.24115 0.01,0.1324 0.0192,0.50595 h 0.0144 q 0.29747,-0.52959 0.68611,-0.7471 0.39344,-0.22224 0.974,-0.22224 0.85405,0 1.24749,0.42084 0.39824,0.4161 0.39824,1.38072 v 3.40925 z"
         style="font-style:normal;font-weight:normal;font-size:36.8689px;line-height:1.25;font-family:sans-serif;letter-spacing:0px;word-spacing:0px;fill:#bde7ff;fill-opacity:1;stroke:none;stroke-width:0.286933px;stroke-linecap:butt;stroke-linejoin:miter;stroke-opacity:1"
         id="path833" />
      <path
         style="fill:#0567a3;fill-opacity:1;fill-rule:evenodd;stroke:none;stroke-width:0.264583px;stroke-linecap:butt;stroke-linejoin:miter;stroke-opacity:1"
         d="m -530.9912,-156.52132 v 3.6564 l -3.26088,-1.88267 z"
         id="path10716"
         inkscape:connector-curvature="0"
         inkscape:export-filename="/home/lele/Immagini/bluebv.png"
         inkscape:export-xdpi="533.33331"
         inkscape:export-ydpi="533.33331" />
    </g>
  </g>
</svg>
