<?xml version="1.0" encoding="UTF-8" standalone="no"?>
<!-- Created with Inkscape (http://www.inkscape.org/) -->

<svg
   width="14.661654mm"
   height="5.2979879mm"
   viewBox="0 0 14.661659 5.2979895"
   version="1.1"
   id="svg1"
   sodipodi:docname="pelo-logo.svg"
   inkscape:version="1.3 (0e150ed6c4, 2023-07-21)"
   xmlns:inkscape="http://www.inkscape.org/namespaces/inkscape"
   xmlns:sodipodi="http://sodipodi.sourceforge.net/DTD/sodipodi-0.dtd"
   xmlns="http://www.w3.org/2000/svg"
   xmlns:svg="http://www.w3.org/2000/svg">
  <sodipodi:namedview
     id="namedview1"
     pagecolor="#ffffff"
     bordercolor="#000000"
     borderopacity="0.25"
     inkscape:showpageshadow="2"
     inkscape:pageopacity="0.0"
     inkscape:pagecheckerboard="0"
     inkscape:deskcolor="#d1d1d1"
     inkscape:document-units="mm"
     inkscape:zoom="0.3914304"
     inkscape:cx="264.41482"
     inkscape:cy="376.82306"
     inkscape:window-width="1862"
     inkscape:window-height="1117"
     inkscape:window-x="28"
     inkscape:window-y="28"
     inkscape:window-maximized="1"
     inkscape:current-layer="layer1" />
  <defs
     id="defs1">
    <clipPath
       clipPathUnits="userSpaceOnUse"
       id="clipPath2">
      <path
         d="M 0,2000 H 2000 V 0 H 0 Z"
         transform="translate(-777.19869,-1026.4299)"
         id="path2" />
    </clipPath>
    <clipPath
       clipPathUnits="userSpaceOnUse"
       id="clipPath4">
      <path
         d="M 0,2000 H 2000 V 0 H 0 Z"
         transform="translate(-984.8662,-894.13012)"
         id="path4" />
    </clipPath>
    <clipPath
       clipPathUnits="userSpaceOnUse"
       id="clipPath6">
      <path
         d="M 0,2000 H 2000 V 0 H 0 Z"
         transform="translate(-1100.7276,-894.13012)"
         id="path6" />
    </clipPath>
    <clipPath
       clipPathUnits="userSpaceOnUse"
       id="clipPath8">
      <path
         d="M 0,2000 H 2000 V 0 H 0 Z"
         transform="translate(-1175.6964,-907.15942)"
         id="path8" />
    </clipPath>
    <linearGradient
       x1="0"
       y1="0"
       x2="1"
       y2="0"
       gradientUnits="userSpaceOnUse"
       gradientTransform="matrix(47.090126,0,0,47.090126,-42.862442,152.06002)"
       spreadMethod="pad"
       id="linearGradient10">
      <stop
         style="stop-opacity:1;stop-color:#f08933 icc-color(sRGB-IEC61966-2.1, 0.94116211, 0.5372467, 0.19999695);"
         offset="0"
         id="stop8" />
      <stop
         style="stop-opacity:1;stop-color:#f08933 icc-color(sRGB-IEC61966-2.1, 0.94116211, 0.5372467, 0.19999695);"
         offset="0.843575"
         id="stop9" />
      <stop
         style="stop-opacity:1;stop-color:#f08933 icc-color(sRGB-IEC61966-2.1, 0.94116211, 0.5372467, 0.19999695);"
         offset="1"
         id="stop10" />
    </linearGradient>
    <linearGradient
       x1="0"
       y1="0"
       x2="1"
       y2="0"
       gradientUnits="userSpaceOnUse"
       gradientTransform="matrix(47.038065,0,0,47.038065,6.8474177,152.02898)"
       spreadMethod="pad"
       id="linearGradient13">
      <stop
         style="stop-opacity:1;stop-color:#f08933 icc-color(sRGB-IEC61966-2.1, 0.94116211, 0.5372467, 0.19999695);"
         offset="0"
         id="stop11" />
      <stop
         style="stop-opacity:1;stop-color:#f08933 icc-color(sRGB-IEC61966-2.1, 0.94116211, 0.5372467, 0.19999695);"
         offset="0.843575"
         id="stop12" />
      <stop
         style="stop-opacity:1;stop-color:#f08933 icc-color(sRGB-IEC61966-2.1, 0.94116211, 0.5372467, 0.19999695);"
         offset="1"
         id="stop13" />
    </linearGradient>
    <clipPath
       clipPathUnits="userSpaceOnUse"
       id="clipPath15">
      <path
         d="M 0,2000 H 2000 V 0 H 0 Z"
         transform="translate(-1066.4784,-1288.8627)"
         id="path15" />
    </clipPath>
    <clipPath
       clipPathUnits="userSpaceOnUse"
       id="clipPath17">
      <path
         d="M 0,2000 H 2000 V 0 H 0 Z"
         transform="translate(-1044.3993,-1161.1287)"
         id="path17" />
    </clipPath>
    <clipPath
       clipPathUnits="userSpaceOnUse"
       id="clipPath19">
      <path
         d="M 0,2000 H 2000 V 0 H 0 Z"
         transform="translate(-922.11685,-1194.9198)"
         id="path19" />
    </clipPath>
    <clipPath
       clipPathUnits="userSpaceOnUse"
       id="clipPath21">
      <path
         d="M 0,2000 H 2000 V 0 H 0 Z"
         transform="translate(-1087.3203,-1211.5554)"
         id="path21" />
    </clipPath>
    <clipPath
       clipPathUnits="userSpaceOnUse"
       id="clipPath23">
      <path
         d="M 0,2000 H 2000 V 0 H 0 Z"
         transform="translate(-975.10825,-1224.4922)"
         id="path23" />
    </clipPath>
    <clipPath
       clipPathUnits="userSpaceOnUse"
       id="clipPath25">
      <path
         d="M 0,2000 H 2000 V 0 H 0 Z"
         transform="translate(-1054.9816,-1233.2162)"
         id="path25" />
    </clipPath>
    <clipPath
       clipPathUnits="userSpaceOnUse"
       id="clipPath27">
      <path
         d="M 0,2000 H 2000 V 0 H 0 Z"
         transform="translate(-1084.5699,-1244.9696)"
         id="path27" />
    </clipPath>
    <clipPath
       clipPathUnits="userSpaceOnUse"
       id="clipPath29">
      <path
         d="M 0,2000 H 2000 V 0 H 0 Z"
         transform="translate(-1013.8566,-1259.3484)"
         id="path29" />
    </clipPath>
  </defs>
  <g
     inkscape:label="Livello 1"
     inkscape:groupmode="layer"
     id="layer1"
     transform="translate(42.33333,-118.95314)">
    <path
       id="path10"
       d="m -41.768984,119.46214 c -0.04662,0.0501 -0.09341,0.10019 -0.137825,0.15223 v 0 c -0.145527,0.17061 -0.257272,0.36163 -0.335647,0.57152 v 0 c -0.0898,0.24044 -0.103726,0.49017 -0.08165,0.74301 v 0 c 0.02249,0.2578 0.07547,0.50968 0.158429,0.75469 v 0 c 0.12892,0.38081 0.318132,0.72945 0.564886,1.04697 v 0 c 0.146867,0.18898 0.309454,0.3639 0.493122,0.51661 v 0 c 0.163655,0.13607 0.332307,0.26738 0.507616,0.38789 v 0 c 0.164859,0.11332 0.338713,0.21436 0.513477,0.31218 v 0 c 0.131532,0.0736 0.269585,0.13608 0.406955,0.19866 v 0 c 0.08294,0.0378 0.169448,0.0681 0.255591,0.0983 v 0 c 0.04423,0.0155 0.05729,0.006 0.04852,-0.0387 v 0 c -0.01138,-0.0578 -0.02412,-0.11824 -0.05132,-0.16958 v 0 c -0.07226,-0.13626 -0.178988,-0.24571 -0.29739,-0.34269 v 0 c -0.09121,-0.0747 -0.18853,-0.14201 -0.279944,-0.2165 v 0 c -0.143482,-0.1169 -0.286033,-0.23505 -0.425652,-0.3565 v 0 c -0.134259,-0.11679 -0.256228,-0.246 -0.363748,-0.38814 v 0 c -0.09646,-0.12754 -0.178262,-0.26271 -0.211702,-0.42191 v 0 c -0.0028,-0.0131 -0.0033,-0.0267 -0.0049,-0.04 v 0 c 0.01922,0.0138 0.02928,0.0298 0.04094,0.0444 v 0 c 0.133941,0.16845 0.294687,0.30779 0.474335,0.42449 v 0 c 0.07176,0.0466 0.159452,0.0614 0.23719,0.0238 v 0 c 0.127421,-0.0616 0.12056,-0.0834 0.04552,-0.17896 v 0 c -0.07435,-0.0947 -0.15743,-0.18244 -0.233669,-0.2757 v 0 c -0.169606,-0.20743 -0.329967,-0.42163 -0.471927,-0.6493 v 0 c -0.07896,-0.12663 -0.194141,-0.18871 -0.344415,-0.1854 v 0 c -0.07233,0.002 -0.144754,10e-4 -0.217108,3.5e-4 v 0 c -0.06695,-7e-4 -0.121832,-0.0245 -0.152523,-0.0881 v 0 c -0.05341,-0.11075 -0.11002,-0.2202 -0.15843,-0.3331 v 0 c -0.114109,-0.26636 -0.170879,-0.54308 -0.145481,-0.83488 v 0 c 0.01915,-0.22029 0.06056,-0.43454 0.148957,-0.63818 v 0 c 0.02001,-0.0461 0.0421,-0.0913 0.06322,-0.13696 v 0 c -0.0027,-0.003 -0.0055,-0.006 -0.0082,-0.009 v 0 c -0.01249,0.009 -0.02681,0.0168 -0.03721,0.028"
       style="fill:#9feaf9;fill-opacity:1;stroke:none;stroke-width:0.0227171" />
    <path
       id="path13"
       d="m -36.86416,119.44397 c 0.07392,0.13557 0.129783,0.2779 0.163927,0.42849 v 0 c 0.0488,0.21527 0.07572,0.4326 0.0503,0.6531 v 0 c -0.03578,0.31031 -0.153455,0.59244 -0.30282,0.86357 v 0 c -0.03467,0.063 -0.08567,0.0857 -0.153023,0.0854 v 0 c -0.08124,-3.5e-4 -0.162542,-0.002 -0.243733,5.9e-4 v 0 c -0.0654,0.002 -0.126762,0.0186 -0.184123,0.0532 v 0 c -0.07338,0.0442 -0.119242,0.1092 -0.163904,0.1804 v 0 c -0.168153,0.26811 -0.364498,0.51531 -0.572724,0.75332 v 0 c -0.04746,0.0542 -0.094,0.10986 -0.134962,0.16897 v 0 c -0.02951,0.0426 -0.02192,0.061 0.01824,0.0939 v 0 c 0.0848,0.0693 0.21093,0.0735 0.312021,0.006 v 0 c 0.15484,-0.10318 0.295755,-0.22269 0.414521,-0.36695 v 0 c 0.02783,-0.0338 0.05543,-0.0678 0.08317,-0.10166 v 0 c 0.0032,0.001 0.0064,0.002 0.0096,0.004 v 0 c -0.0061,0.0293 -0.01104,0.0589 -0.0184,0.0879 v 0 c -0.03776,0.1487 -0.121605,0.27362 -0.214223,0.39121 v 0 c -0.176695,0.22426 -0.386556,0.41636 -0.607821,0.59551 v 0 c -0.137939,0.11172 -0.282625,0.21508 -0.421359,0.32583 v 0 c -0.114358,0.0913 -0.216858,0.1953 -0.301457,0.31547 v 0 c -0.044,0.0625 -0.06806,0.13326 -0.07585,0.20893 v 0 c -0.0058,0.0565 0.0043,0.0646 0.05813,0.0501 v 0 c 0.02447,-0.007 0.049,-0.0139 0.07217,-0.024 v 0 c 0.116198,-0.0507 0.232783,-0.10068 0.347709,-0.15418 v 0 c 0.325379,-0.15148 0.631288,-0.33572 0.920683,-0.54812 v 0 c 0.187553,-0.13767 0.365588,-0.28628 0.531332,-0.44926 v 0 c 0.145004,-0.14262 0.271948,-0.30064 0.389963,-0.46647 v 0 c 0.15609,-0.21929 0.284056,-0.45341 0.387397,-0.70151 v 0 c 0.09905,-0.23767 0.170947,-0.48304 0.21052,-0.73769 v 0 c 0.02905,-0.18713 0.04791,-0.37413 0.0319,-0.56439 v 0 c -0.01717,-0.20389 -0.06854,-0.39637 -0.158998,-0.57981 v 0 c -0.09916,-0.20114 -0.228966,-0.37981 -0.384306,-0.54051 v 0 c -0.01577,-0.0163 -0.03703,-0.0273 -0.05573,-0.0407 v 0 c -0.0027,0.003 -0.0055,0.007 -0.0082,0.01"
       style="fill:#9feaf9;fill-opacity:1;stroke:none;stroke-width:0.0227171" />
    <path
       id="path14"
       d="m 0,0 c 1.945,-1.137 3.636,-2.67 4.769,-4.595 3.59,-6.102 4.434,-12.661 2.766,-19.543 -0.302,-1.248 -1.022,-0.786 -1.796,-0.512 -2.783,0.983 -5.52,2.264 -8.393,2.795 -8.213,1.519 -15.82,-0.56 -22.631,-5.119 -3.639,-2.436 -6.815,-5.569 -10.154,-8.44 -1.402,-1.205 -1.526,-1.244 -2.278,0.486 -1.915,4.403 -5.77,6.549 -9.969,7.816 -3.645,1.099 -7.527,1.449 -11.326,1.98 -1.808,0.253 -3.679,0.05 -5.494,0.277 -0.654,0.081 -1.396,0.692 -1.811,1.268 -6.972,9.669 -16.086,16.59 -26.91,21.457 -6.934,3.117 -14.191,4.733 -21.708,5.176 -8.188,0.482 -16.094,-1.129 -23.778,-3.87 -8.92,-3.182 -16.91,-8.069 -23.535,-14.73 -3.923,-3.944 -7.03,-8.791 -10.031,-13.531 -2.254,-3.559 -3.752,-7.595 -5.589,-11.418 -0.227,-0.473 -0.468,-0.94 -1.047,-1.312 0,1.403 -0.107,2.815 0.017,4.207 0.832,9.31 3.184,18.244 6.805,26.849 0.627,1.491 1.353,2.942 2.08,4.389 2.153,4.28 6.266,6.401 9.975,8.944 10.296,7.059 21.766,11.034 34.064,12.72 7.027,0.964 14.03,0.502 21.001,-0.701 6.985,-1.206 13.681,-3.41 20.027,-6.468 5.581,-2.69 10.808,-6.081 15.537,-10.135 3.706,-3.178 3.693,-3.269 7.416,-0.156 11.218,9.379 24.238,14.738 38.609,16.503 13.899,1.706 27.392,-0.198 40.176,-6.3 5.363,-2.56 10.501,-5.435 15.218,-9.062 3.083,-2.37 4.413,-5.872 5.888,-9.211 3.36,-7.607 5.425,-15.597 6.41,-23.859 0.039,-0.329 0.051,-0.667 0.024,-0.996 -0.011,-0.14 -0.155,-0.268 -0.443,-0.726 -6.665,13.684 -16.453,24.097 -29.908,30.963 -13.514,6.896 -27.669,8.838 -42.416,5.362 -14.74,-3.475 -26.683,-11.439 -36.073,-23.219 0.05,-0.16 0.1,-0.321 0.149,-0.481 0.505,0.025 1.017,0.005 1.514,0.082 4.887,0.759 9.78,0.892 14.672,0.094 4.263,-0.694 8.176,-2.289 11.606,-4.916 1.074,-0.822 1.753,-0.812 2.684,0.154 6.073,6.311 13.552,9.977 22.153,11.234 2.95,0.431 6.006,0.381 8.997,0.231 3.381,-0.169 4.081,0.149 4.653,3.458 0.284,1.645 0.427,3.322 0.51,4.991 0.103,2.065 -0.407,3.979 -1.692,5.662 -0.443,0.582 -0.755,1.265 -1.126,1.901 C -0.259,-0.201 -0.13,-0.1 0,0"
       style="fill:#8ed0de;fill-opacity:1;fill-rule:nonzero;stroke:none"
       transform="matrix(0.02271719,0,0,-0.02271719,-37.770659,119.31237)"
       clip-path="url(#clipPath15)" />
    <path
       id="path16"
       d="m 0,0 c -1.152,0.592 -2.086,1.07 -3.019,1.551 -3.872,1.998 -6.358,5.096 -7.037,9.417 -0.226,1.439 -0.031,3.01 0.289,4.45 0.298,1.34 -0.059,2.001 -1.196,2.694 -7.351,4.479 -13.973,9.851 -19.42,16.554 -3.411,4.197 -6.021,8.863 -7.486,14.119 -1.086,3.898 -0.91,7.817 -0.504,11.794 0.527,5.158 1.136,10.341 1.126,15.513 -0.015,7.852 -1.185,15.585 -4.09,22.966 -0.142,0.363 -0.243,0.743 -0.339,1.121 -0.021,0.087 0.061,0.2 0.244,0.741 1.287,-2.172 2.525,-4.041 3.544,-6.022 3.376,-6.559 5.834,-13.459 6.588,-20.815 0.407,-3.969 0.383,-8.015 0.181,-12.007 -0.663,-13.141 5.452,-22.879 15.067,-31.005 4.948,-4.181 10.349,-7.583 16.285,-10.156 3.317,-1.437 6.633,-2.877 9.929,-4.361 0.545,-0.245 1.023,-0.684 1.467,-1.103 1.688,-1.595 2.045,-3.13 0.823,-5.09 C 10.416,7.093 8.366,3.808 6.013,0.769 2.188,-4.17 -1.661,-9.125 -5.909,-13.694 c -5.707,-6.137 -12.247,-11.298 -20.259,-14.212 -6.295,-2.289 -12.472,-1.819 -18.55,0.991 -4.712,2.179 -9.559,4.069 -14.249,6.292 -7.664,3.633 -16.816,-4.862 -15.675,-11.232 0.309,-1.728 1.063,-3.38 1.654,-5.052 0.269,-0.759 0.637,-1.482 0.959,-2.221 -0.105,-0.113 -0.21,-0.226 -0.314,-0.34 -0.508,0.221 -1.062,0.373 -1.517,0.674 -6.937,4.569 -8.25,12.489 -2.622,19.391 2.645,3.244 6.018,5.642 10.288,6.065 2.224,0.22 4.526,-0.304 6.788,-0.533 0.535,-0.054 1.053,-0.273 1.751,-0.463 -0.937,1.947 -1.842,3.695 -2.621,5.498 -0.426,0.986 -0.652,2.052 0.43,2.886 1.357,1.047 2.633,0.742 3.639,-0.798 1.277,-1.956 2.503,-3.964 3.959,-5.783 5.223,-6.527 12.395,-9.381 20.435,-10.113 4.131,-0.377 7.894,1.473 11.349,3.583 C -12.446,-14.167 -6.131,-7.403 0,0"
       style="fill:#8ed0de;fill-opacity:1;fill-rule:nonzero;stroke:none"
       transform="matrix(0.02271719,0,0,-0.02271719,-38.272233,122.21413)"
       clip-path="url(#clipPath17)" />
    <path
       id="path18"
       d="m 0,0 c -0.536,0.448 -1.378,0.875 -1.731,1.556 -0.193,0.374 0.266,1.496 0.719,1.734 5.867,3.078 8.157,8.667 9.641,14.477 1.903,7.446 3.214,15.046 4.677,22.6 1.853,9.569 5.238,18.491 11.249,26.232 4.551,5.86 10.172,10.499 17.104,13.338 1.525,0.624 3.229,0.873 4.877,1.1 0.567,0.078 1.696,-0.385 1.73,-0.691 C 48.341,79.65 48.113,78.644 47.618,78.219 46.486,77.248 45.108,76.566 43.85,75.735 35.888,70.478 30.536,63.202 27.041,54.388 24.25,47.348 23.453,39.904 22.115,32.554 20.751,25.061 18.785,17.727 15.14,10.963 12.699,6.434 9.611,2.537 4.426,0.948 3.104,0.543 1.715,0.36 0,0"
       style="fill:#8ed0de;fill-opacity:1;fill-rule:nonzero;stroke:none"
       transform="matrix(0.02271719,0,0,-0.02271719,-41.050147,121.44649)"
       clip-path="url(#clipPath19)" />
    <path
       id="path20"
       d="m 0,0 c -3.426,-1.525 -6.283,-4.148 -9.72,-3.265 -2.449,0.629 -2.932,0.104 -3.671,-1.876 -0.318,-0.853 -1.635,-1.491 -2.633,-1.9 -1.958,-0.801 -4.005,-1.384 -6.027,-2.023 -0.263,-0.084 -0.59,0.034 -1.008,0.408 1.04,0.576 2.07,1.172 3.123,1.723 2.635,1.381 5.138,6.055 4.421,8.938 -0.274,1.1 -1.298,2.296 -2.308,2.859 -1.361,0.759 -3.018,1.194 -4.586,1.331 -2.951,0.259 -4.24,0.925 -4.793,3.038 -0.446,1.707 0.504,3.479 2.976,4.661 3.004,1.435 6.144,2.586 9.228,3.853 0.203,0.084 0.431,0.128 0.651,0.152 1.724,0.192 3.534,0.565 4.733,-1.18 0.965,-1.404 0.776,-3.912 -0.69,-5.472 -1.719,-1.83 -2.373,-4.034 -2.748,-6.341 -0.127,-0.775 0.245,-1.978 0.825,-2.462 2.873,-2.397 6.107,-3.684 9.915,-2.361 0.467,0.163 0.956,0.269 1.441,0.376 C -0.791,0.477 -0.682,0.366 0,0"
       style="fill:#8ed0de;fill-opacity:1;fill-rule:nonzero;stroke:none"
       transform="matrix(0.02271719,0,0,-0.02271719,-37.297188,121.06858)"
       clip-path="url(#clipPath21)" />
    <path
       id="path22"
       d="m 0,0 c 0.87,-0.836 1.478,-1.284 1.916,-1.862 4.815,-6.348 11.179,-8.93 19.053,-7.962 0.482,0.059 1.045,-0.145 1.478,-0.389 0.104,-0.059 -0.052,-0.848 -0.274,-1.173 -3.236,-4.721 -12.018,-6.425 -16.58,-3.182 -2.309,1.641 -3.735,3.997 -4.569,6.645 -0.601,1.906 -0.935,3.9 -1.308,5.869 C -0.375,-1.571 -0.155,-1.03 0,0"
       style="fill:#8ed0de;fill-opacity:1;fill-rule:nonzero;stroke:none"
       transform="matrix(0.02271719,0,0,-0.02271719,-39.846331,120.77469)"
       clip-path="url(#clipPath23)" />
    <path
       id="path24"
       d="m 0,0 c -0.587,-0.095 -1.187,-0.323 -1.758,-0.264 -7.055,0.731 -12.464,-1.993 -16.519,-7.703 -0.372,-0.523 -1.071,-0.813 -1.618,-1.211 -0.203,0.695 -0.691,1.452 -0.558,2.075 0.544,2.542 1.05,5.134 1.997,7.538 1.304,3.309 4.05,4.763 7.574,4.675 3.427,-0.084 6.57,-1.189 9.494,-2.903 C -0.736,1.824 -0.281,1.104 0.265,0.539 0.177,0.359 0.088,0.18 0,0"
       style="fill:#8ed0de;fill-opacity:1;fill-rule:nonzero;stroke:none"
       transform="matrix(0.02271719,0,0,-0.02271719,-38.031833,120.5765)"
       clip-path="url(#clipPath25)" />
    <path
       id="path26"
       d="m 0,0 c -1.647,-0.151 -3.316,-0.178 -4.935,-0.479 -3.306,-0.617 -5.992,-2.285 -8.097,-4.967 -0.59,-0.752 -1.63,-1.149 -2.464,-1.709 -0.03,0.89 -0.199,1.803 -0.064,2.668 0.394,2.518 1.302,4.814 3.003,6.799 2.177,2.539 4.979,3.051 7.905,2.175 C -2.73,3.911 -1.016,2.604 0.735,1.535 1.07,1.33 1.382,0.629 1.275,0.293 1.17,-0.033 0.516,-0.184 0.103,-0.412 0.069,-0.275 0.034,-0.137 0,0"
       style="fill:#8ed0de;fill-opacity:1;fill-rule:nonzero;stroke:none"
       transform="matrix(0.02271719,0,0,-0.02271719,-37.359669,120.3095)"
       clip-path="url(#clipPath27)" />
    <path
       id="path28"
       d="m 0,0 c 0.133,0.056 0.297,0.197 0.42,0.167 3.751,-0.929 7.308,-2.469 9.833,-5.377 2.855,-3.286 1.048,-6.723 -1.712,-8.982 -0.244,-0.199 -1.1,0.174 -1.544,0.471 -0.221,0.148 -0.191,0.725 -0.213,1.111 -0.27,4.649 -2.656,8.192 -5.881,11.301 -0.317,0.306 -0.625,0.622 -0.916,0.953 C -0.064,-0.299 -0.008,-0.147 0,0"
       style="fill:#8ed0de;fill-opacity:1;fill-rule:nonzero;stroke:none"
       transform="matrix(0.02271719,0,0,-0.02271719,-38.966079,119.98286)"
       clip-path="url(#clipPath29)" />
    <text
       xml:space="preserve"
       style="font-style:normal;font-variant:normal;font-weight:normal;font-stretch:normal;font-size:3.54169px;font-family:BentonSans;-inkscape-font-specification:BentonSans;fill:#8ed0de;fill-opacity:1;stroke-width:0.0705621"
       x="-35.569645"
       y="123.12391"
       id="text1"><tspan
         sodipodi:role="line"
         id="tspan1"
         style="font-style:normal;font-variant:normal;font-weight:bold;font-stretch:normal;font-size:3.54169px;font-family:BentonSansCond;-inkscape-font-specification:'BentonSansCond Bold';fill:#8ed0de;fill-opacity:1;stroke-width:0.0705621"
         x="-35.569645"
         y="123.12391">PELO</tspan></text>
  </g>
</svg>
